<?xml version="1.0" encoding="UTF-8"?>
<svg id="Capa_2" data-name="Capa 2" xmlns="http://www.w3.org/2000/svg" viewBox="0 0 100 100">
  <defs>
    <style>
      .cls-1 {
        fill: #031022;
      }

      .cls-2 {
        fill: none;
        stroke: #000;
        stroke-miterlimit: 10;
        stroke-width: 1.5px;
      }

      .cls-3 {
        fill: #fff;
      }

      .cls-4 {
        fill: #a2332a;
      }
    </style>
  </defs>
  <g id="Icono_4:_Programación" data-name="Icono 4: Programación">
    <circle id="_Elipse_Rojo4" data-name="&amp;lt;Elipse&amp;gt; Rojo4" class="cls-4" cx="50" cy="50" r="50"/>
    <circle id="_Elipse_Azul4" data-name="&amp;lt;Elipse&amp;gt; Azul4" class="cls-1" cx="50" cy="50" r="46.88"/>
    <rect class="cls-3" x="16.59" y="23.83" width="66.65" height="41.04" rx="1.81" ry="1.81"/>
    <path class="cls-2" d="M16.94,59.23c22.05-.02,44.1-.05,66.16-.07"/>
    <rect class="cls-2" x="43.82" y="27.35" width="35.67" height="26.89" rx="1.47" ry="1.47"/>
    <line class="cls-2" x1="44.08" y1="32" x2="78.67" y2="32"/>
    <path class="cls-2" d="M56.24,35.07c-1.98,3.75-2.97,5.57-2.97,5.57"/>
    <circle cx="56.2" cy="35.13" r=".97"/>
    <circle cx="53.33" cy="40.5" r=".97"/>
    <g>
      <path class="cls-2" d="M53.25,43.69c-4.24.04-6.32.04-6.32.04"/>
      <circle cx="52.94" cy="43.69" r=".97"/>
      <circle cx="47.09" cy="43.72" r=".97"/>
    </g>
    <g>
      <path class="cls-2" d="M70.56,51.53c-4.24.04-6.32.04-6.32.04"/>
      <circle cx="70.49" cy="51.51" r=".97"/>
      <circle cx="64.4" cy="51.55" r=".97"/>
    </g>
    <g>
      <path class="cls-2" d="M73.76,35.9c-4.24.04-6.32.04-6.32.04"/>
      <circle cx="73.69" cy="35.89" r=".97"/>
      <circle cx="67.6" cy="35.93" r=".97"/>
    </g>
    <g>
      <path class="cls-2" d="M50.84,35.22c-1.78,1.24-2.94,2.15-3.56,2.66-.26.21-.21.62.1.77l3.82,1.86"/>
      <circle cx="50.92" cy="40.37" r=".97"/>
      <circle cx="50.81" cy="35.22" r=".97"/>
    </g>
    <g>
      <path class="cls-2" d="M58.68,35.22c1.78,1.24,2.94,2.15,3.56,2.66.26.21.21.62-.1.77l-3.82,1.86"/>
      <circle cx="58.61" cy="35.22" r=".97"/>
      <circle cx="58.33" cy="40.5" r=".97"/>
    </g>
    <circle cx="74.35" cy="39.84" r=".97"/>
    <g>
      <line class="cls-2" x1="46.95" y1="47.61" x2="51.3" y2="47.61"/>
      <circle cx="47.01" cy="47.61" r=".97"/>
      <circle cx="50.92" cy="47.61" r=".97"/>
    </g>
    <g>
      <line class="cls-2" x1="70.19" y1="43.65" x2="74.54" y2="43.65"/>
      <circle cx="70.57" cy="43.61" r=".97"/>
      <circle cx="74.23" cy="43.61" r=".97"/>
    </g>
    <g>
      <line class="cls-2" x1="54.71" y1="47.61" x2="59.06" y2="47.61"/>
      <circle cx="54.77" cy="47.61" r=".97"/>
      <circle cx="58.68" cy="47.61" r=".97"/>
    </g>
    <circle cx="56.78" cy="51.52" r=".97"/>
    <g>
      <line class="cls-2" x1="66.54" y1="39.88" x2="70.9" y2="39.88"/>
      <circle cx="66.54" cy="39.88" r=".97"/>
      <circle cx="70.9" cy="39.88" r=".97"/>
    </g>
    <g>
      <path class="cls-2" d="M62.93,43.57c-4.24.04-6.32.04-6.32.04"/>
      <circle cx="62.86" cy="43.55" r=".97"/>
      <circle cx="56.77" cy="43.6" r=".97"/>
    </g>
    <g>
      <line class="cls-2" x1="62.73" y1="47.62" x2="73.05" y2="47.59"/>
      <circle cx="62.73" cy="47.62" r=".97"/>
      <circle cx="73.05" cy="47.59" r=".97"/>
    </g>
    <circle cx="66.54" cy="43.61" r=".97"/>
    <g>
      <line class="cls-2" x1="46.95" y1="51.51" x2="51.3" y2="51.51"/>
      <circle cx="47.01" cy="51.51" r=".97"/>
      <circle cx="50.92" cy="51.51" r=".97"/>
    </g>
    <g>
      <line class="cls-2" x1="19.11" y1="52.52" x2="23.47" y2="52.52"/>
      <circle cx="19.49" cy="52.48" r=".97"/>
      <circle cx="23.16" cy="52.48" r=".97"/>
    </g>
    <g>
      <line class="cls-2" x1="23.27" y1="62.44" x2="27.62" y2="62.44"/>
      <circle cx="23.65" cy="62.4" r=".97"/>
      <circle cx="27.31" cy="62.4" r=".97"/>
    </g>
    <g>
      <line class="cls-2" x1="35.16" y1="52.52" x2="39.52" y2="52.52"/>
      <circle cx="35.54" cy="52.48" r=".97"/>
      <circle cx="39.21" cy="52.48" r=".97"/>
    </g>
    <g>
      <circle cx="30.39" cy="38.43" r="4.01"/>
      <path d="M30.39,46.09c-4.2,0-7.62-3.42-7.62-7.62s3.42-7.62,7.62-7.62,7.62,3.42,7.62,7.62-3.42,7.62-7.62,7.62ZM30.39,32.35c-3.37,0-6.12,2.74-6.12,6.12s2.74,6.12,6.12,6.12,6.12-2.74,6.12-6.12-2.74-6.12-6.12-6.12Z"/>
    </g>
    <path d="M32.19,49.35h-3.92l-.34-3.47c-.35-.15-.71-.31-1.07-.49-.21-.1-.41-.2-.61-.29l-2.65,2.04-2.46-2.93,1.98-2.26c-.11-.25-.22-.51-.33-.77l-.22-.52-3.03-.53v-3.7l2.97-.29c.08-.27.17-.53.28-.79.12-.29.26-.57.42-.83l-1.94-1.99,2.62-3.04,2.26,1.7c.31-.23.65-.41,1.02-.55.34-.13.68-.23,1.04-.28l.43-2.73h3.54l.44,2.85c.35.04.7.13,1.02.28.26.12.5.27.71.46l2.97-1.67,1.95,2.63-1.7,2.36c.25.28.46.59.62.93.13.27.22.56.28.85l2.59.21v3.72s-2.84.51-2.84.51c-.05.54-.19,1.08-.42,1.57-.13.28-.29.54-.47.79l1.46,2.02-2.67,2.7-1.98-1.78c-.28.16-.57.29-.87.38-.24.08-.48.14-.73.17l-.35,2.75ZM29.63,47.85h1.24l.34-2.68h.65c.32-.02.64-.07.95-.17.34-.11.66-.28.95-.5l.49-.38,1.8,1.62.77-.78-1.43-1.98.43-.45c.25-.26.45-.55.6-.87.28-.59.31-1.16.3-1.53l-.03-.66,2.85-.51v-1.08s-2.5-.2-2.5-.2v-.68c-.01-.32-.08-.63-.22-.92-.2-.42-.49-.7-.7-.86l-.6-.44,1.88-2.61-.51-.69-2.88,1.62-.4-.51c-.24-.1-.49-.2-.74-.3-.28-.11-.55-.23-.83-.34l-.72.09-.45-2.93h-.97l-.42,2.67h-.63c-.39.01-.78.09-1.14.23-.38.15-.73.37-1.03.66l-.46.43-2.11-1.59-.8.93,1.83,1.88-.36.51c-.24.34-.44.7-.6,1.08-.14.34-.25.7-.33,1.06l-.11.54-2.69.26v1.08l2.6.46.53,1.27c.17.4.34.8.51,1.19l.19.44-1.76,2,.71.84,2.26-1.74.42.21c.32.16.65.33,1,.49.49.23.96.44,1.43.64l.41.17.29,3Z"/>
    <circle class="cls-3" cx="30.3" cy="38.2" r=".29"/>
    <g>
      <line class="cls-2" x1="26.79" y1="52.62" x2="31.14" y2="52.62"/>
      <circle cx="27.17" cy="52.58" r=".97"/>
      <circle cx="30.83" cy="52.58" r=".97"/>
    </g>
    <g>
      <line class="cls-2" x1="32.91" y1="62.48" x2="37.26" y2="62.48"/>
      <circle cx="33.29" cy="62.44" r=".97"/>
      <circle cx="36.95" cy="62.44" r=".97"/>
    </g>
    <g>
      <line class="cls-2" x1="44.5" y1="62.45" x2="54.81" y2="62.41"/>
      <circle cx="44.5" cy="62.45" r=".97"/>
      <circle cx="54.81" cy="62.41" r=".97"/>
    </g>
    <g>
      <line class="cls-2" x1="60.69" y1="62.39" x2="71" y2="62.36"/>
      <circle cx="60.69" cy="62.39" r=".97"/>
      <circle cx="71" cy="62.36" r=".97"/>
    </g>
    <circle cx="76.31" cy="62.29" r=".97"/>
    <g>
      <path class="cls-3" d="M50.06,66.19h-5.86c.17,1.22.3,3.36-.44,5.86-.89,3-2.57,4.95-3.47,5.86h9.75v-11.72Z"/>
      <path class="cls-3" d="M50.13,66.19h5.86c-.17,1.22-.3,3.36.44,5.86.89,3,2.57,4.95,3.47,5.86h-9.75v-11.72Z"/>
    </g>
    <path class="cls-3" d="M30.6,82.79c.65-1.3,1.3-2.6,1.95-3.91h35.16l1.95,3.91H30.6Z"/>
  </g>
</svg>