<?xml version="1.0" encoding="UTF-8"?>
<svg id="Capa_2" data-name="Capa 2" xmlns="http://www.w3.org/2000/svg" viewBox="0 0 100 100">
  <defs>
    <style>
      .cls-1 {
        fill: #031022;
      }

      .cls-2 {
        fill: #fff;
      }

      .cls-3 {
        fill: #a2332a;
      }
    </style>
  </defs>
  <g id="Icono_3:_Instalación" data-name="Icono 3: Instalación">
    <g id="Formas3">
      <circle id="_Elipse_Rojo3" data-name="&amp;lt;Elipse&amp;gt; Rojo3" class="cls-3" cx="50" cy="50" r="50"/>
      <circle id="_Elipse_Azul3" data-name="&amp;lt;Elipse&amp;gt; Azul3" class="cls-1" cx="50" cy="50" r="46.88"/>
    </g>
    <g>
      <circle class="cls-2" cx="45.34" cy="85.72" r=".94"/>
      <rect class="cls-2" x="68.67" y="60.13" width="9.33" height="2"/>
      <path class="cls-2" d="M43.98,91.86c-2.23,0-3.8-1.44-4.33-1.93-3.53-3.24-2.4-8.83-2.26-9.46l1.95.44c-.05.2-1.09,5.02,1.66,7.54.46.42,1.67,1.53,3.27,1.39,1.2-.11,2.04-.88,2.35-1.21.95-1.01,1.17-2.32,1.25-3.23.28-3.13.59-15.56.65-33.25h2c-.06,17.75-.38,30.25-.66,33.43-.06.69-.25,2.79-1.78,4.42-.58.61-1.81,1.67-3.62,1.83-.16.01-.32.02-.47.02Z"/>
      <path class="cls-2" d="M74.94,51.76h-11.57l-.9-1.18c-4.08-5.37-5.75-7.59-12.92-7.4l-1.03.03v-8.92l.52-.28c5.39-2.97,8.02-6.62,8.29-11.51v-.11c.73-4.36-2.79-9.01-5.99-12.24h-2.89v8.21l-4.52,4.52-4.51-4.51-.23-9.86,2-.05.21,9.06,2.53,2.53,2.52-2.52v-9.38h5.71l.29.29c3.6,3.55,7.71,8.9,6.87,14.22-.31,5.46-3.11,9.54-8.8,12.81v5.71c7.36.05,9.6,3.01,13.54,8.2l.3.39h10.58v2Z"/>
      <path class="cls-2" d="M49.83,79.03l-.07-2c1.63-.06,3.28-.15,4.92-.29l1.26-.45,7.59-5.8h11.41v2h-10.74l-7.45,5.63-1.78.6c-1.71.14-3.44.24-5.15.3Z"/>
      <path class="cls-2" d="M39.07,41.39h-2v-6.62c-1.04-1.04-2.37-2.28-3.55-3.39-.5-.46-.97-.91-1.4-1.32l-.14-.17c-.84-1.25-3.49-5.79-2.33-11.65,1.17-5.91,5.43-9.1,6.7-9.94l.25-.16h4.62v2h-4.01c-1.33.93-4.64,3.67-5.6,8.49-.99,4.96,1.18,8.85,1.97,10.05.41.38.85.8,1.31,1.23,1.31,1.22,2.79,2.61,3.9,3.73l.29.29v7.44Z"/>
      <path class="cls-2" d="M36.84,56.45c-.79-.04-1.6-.04-2.46-.03-2.69.01-5.48.03-7.91-1.38-1.27-.71-2.16-2.01-2.36-3.45-.19-1.35.25-2.68,1.21-3.64,2.8-2.73,6.46-2.79,11.09-2.87h.47s.04,1.99.04,1.99h-.47c-4.35.08-7.49.13-9.71,2.3-.51.51-.74,1.2-.63,1.94.12.83.63,1.57,1.37,1.99,1.97,1.14,4.48,1.13,6.91,1.12.85,0,1.73,0,2.57.04l-.11,2Z"/>
      <path class="cls-2" d="M32.24,65.38c-1.61,0-3.2-.03-4.74-.07h-.11c-2.79-.39-4.87-2.11-5.3-4.38-.42-2.17.74-4.26,3.08-5.59l.19-.08c3.09-1,7.16-.95,10.72-.82l-.07,2c-2.43-.09-6.92-.25-9.93.69-1.5.88-2.26,2.16-2.01,3.42.27,1.4,1.66,2.48,3.56,2.75,3.34.09,6.89.14,10.21-.1.13-.03.38-.06.64-.09.75-.1,1.77-.24,2.22-.55.99-.66,1.7-2.28,1.17-3.46l1.83-.81c.95,2.16-.21,4.81-1.89,5.93-.83.57-2.02.73-3.07.87-.24.03-.46.06-.67.1-1.92.14-3.88.19-5.81.19Z"/>
      <path class="cls-2" d="M34.16,73.95c-1.01,0-2.02-.05-3.01-.1-.72-.04-1.43-.07-2.13-.09-2.94,0-4.99-2.17-5.47-4.3-.49-2.15.54-4.12,2.67-5.16l.42-.17c3.3-.94,7.79-1.1,11.46-.4,2.44.48,4.29,2.24,4.61,4.37.29,1.99-.8,3.86-2.94,4.99l-.14.06c-1.8.62-3.64.79-5.46.79ZM27.07,66.12c-1.75.85-1.74,2.18-1.57,2.9.3,1.33,1.65,2.74,3.54,2.75.74.02,1.47.05,2.21.09,2.58.13,5.25.26,7.65-.55,1.33-.73,1.99-1.78,1.83-2.89-.19-1.3-1.4-2.39-3.01-2.7-3.3-.63-7.5-.49-10.47.34l-.17.07Z"/>
      <path class="cls-2" d="M36.35,81.76c-.32,0-.65,0-1,0-2.35-.01-3.77-.02-5.14-.93-.62-.41-2.63-1.94-2.52-4.31.09-2.03,1.79-3.89,4.23-4.62l.57,1.92c-1.6.48-2.76,1.63-2.81,2.8-.06,1.32,1.23,2.28,1.63,2.55.84.56,1.79.59,4.04.6,2.61.02,3.71,0,4.52-.52,1.01-.65,2.43-2.27,1.95-3.86-.32-1.06-1.36-1.9-2.72-2.17l.4-1.96c2.08.42,3.7,1.79,4.24,3.56.75,2.5-.92,4.92-2.78,6.12-1.17.75-2.47.84-4.6.84Z"/>
      <path class="cls-2" d="M40.85,60.17c-.18,0-.36,0-.54-.03l-.3-.08c-.84-.37-1.61-.88-2.26-1.53-.78-.76-1.4-1.7-1.79-2.73l-.07-.17v-14.48l18.61.39-.04,2-16.57-.35v12.06c.29.69.72,1.33,1.25,1.85.45.44.96.79,1.52,1.06.37.02.74-.02,1.1-.13.6-.19,1.04-.52,1.32-.8.3-.68.54-1.39.72-2.11.3-1.19.43-2.42.39-3.65l-.03-1.03h6.24v1.01c-.02.79.89,2.49,2.63,4.21,1.62,1.59,3.06,2.31,3.73,2.31h.02l.05,2c-2.02.04-4.31-2-5.21-2.88-.65-.64-2.57-2.66-3.1-4.64h-2.34c-.04,1.07-.19,2.14-.45,3.17-.22.89-.53,1.76-.91,2.6l-.17.26c-.44.48-1.2,1.13-2.31,1.47-.49.15-1,.23-1.51.23Z"/>
    </g>
  </g>
</svg>