<?xml version="1.0" encoding="UTF-8"?>
<svg id="Capa_2" data-name="Capa 2" xmlns="http://www.w3.org/2000/svg" viewBox="0 0 100 100">
  <defs>
    <style>
      .cls-1 {
        fill: #eaa00c;
      }

      .cls-2 {
        fill: #031022;
      }

      .cls-3 {
        fill: #fff;
      }

      .cls-4 {
        fill: #a2332a;
      }
    </style>
  </defs>
  <g id="Icono_1:_TABLEROS" data-name="Icono 1: TABLEROS">
    <g id="Formas_1" data-name="Formas 1">
      <circle id="_Elipse_Rojo1" data-name="&amp;lt;Elipse&amp;gt; Rojo1" class="cls-4" cx="50" cy="50" r="50"/>
      <circle id="_Elipse_Azul1" data-name="&amp;lt;Elipse&amp;gt; Azul1" class="cls-2" cx="50" cy="49.79" r="46.88"/>
      <g>
        <path class="cls-3" d="M22.89,23.09c5.77-.14,11.72-.37,17.83-.73,5.43-.32,10.72-.71,15.87-1.17v57.2l-34.14,4.16c.15-19.82.29-39.64.44-59.46Z"/>
        <path class="cls-3" d="M58.4,21.39l22.44,2.76.41,47.82c-7.58-2.04-15.16-4.07-22.74-6.11-.03-14.82-.07-29.65-.1-44.47Z"/>
        <path d="M62.19,25.42l14.82,1.98c.6.08,1.05.63,1.05,1.29l.29,37.12c0,.86-.74,1.5-1.51,1.27l-15.04-4.4c-.52-.15-.89-.67-.89-1.26-.02-11.57-.05-23.13-.07-34.7,0-.79.63-1.4,1.34-1.3Z"/>
        <g>
          <rect class="cls-3" x="69.05" y="25.81" width=".75" height="11.25" transform="translate(28.48 95.71) rotate(-81.87)"/>
          <circle class="cls-3" cx="74.95" cy="32.23" r=".6"/>
          <circle class="cls-3" cx="63.91" cy="30.65" r=".6"/>
        </g>
        <g>
          <rect class="cls-3" x="68.85" y="29.06" width=".75" height="11.25" transform="translate(25.1 98.31) rotate(-81.87)"/>
          <circle class="cls-3" cx="74.75" cy="35.47" r=".6"/>
          <circle class="cls-3" cx="63.71" cy="33.9" r=".6"/>
        </g>
        <g>
          <path class="cls-1" d="M69.85,44.27l4.18,8.36c.45.91-.4,1.92-1.37,1.63l-7.53-2.26c-.71-.21-1.04-1.02-.68-1.67l3.35-6.1c.45-.82,1.63-.8,2.05.04Z"/>
          <polyline points="68.86 45.85 68.86 47.28 68.86 48.71 67.43 48.71 68.86 52.44 68.86 50.15 70.29 50.15 68.86 45.85"/>
        </g>
        <path d="M27.17,26.57c4.92-.28,20.56-1.17,25.51-1.45.83-.05,1.51.61,1.51,1.44v34.26c0,.74-.56,1.36-1.3,1.43l-25.76,2.43c-.85.08-1.58-.59-1.57-1.44l.27-35.24c0-.76.59-1.38,1.35-1.42Z"/>
        <rect class="cls-3" x="57.04" y="27.75" width=".99" height="1"/>
        <rect class="cls-3" x="57.04" y="59.17" width=".99" height="1"/>
        <path class="cls-3" d="M28.72,33.03v6.37c7.44-.81,14.89-1.62,22.33-2.43-.02-2.9-.03-5.81-.05-8.71-7.43.53-14.86,1.06-22.28,1.59v3.18Z"/>
        <path class="cls-3" d="M28.72,47.61v10.91c7.44-.77,14.89-1.54,22.33-2.3-.02-5.6-.03-11.2-.05-16.79-7.43.91-14.86,1.82-22.28,2.73v5.46Z"/>
        <path d="M34.2,31.13c.06,1,.12,2,.17,3,.06,1.12.11,2.24.17,3.35,1.12-.11,2.24-.22,3.36-.33-.17-2.1-.35-4.2-.52-6.31-1.06.09-2.12.18-3.17.28Z"/>
        <path d="M29.91,31.4c0,1.11,0,2.23,0,3.35,0,1.1,0,2.2-.01,3.3,1.29-.14,2.57-.28,3.86-.42-.11-2.17-.21-4.34-.32-6.51-1.17.09-2.35.18-3.52.27Z"/>
        <path d="M38.06,30.85c.08,1.08.18,2.19.29,3.32.1.98.2,1.94.32,2.88,1.15-.13,2.29-.25,3.44-.38-.22-2.05-.44-4.09-.67-6.14l-3.38.32Z"/>
        <path d="M42.17,30.54c.11,1.1.23,2.21.37,3.35.11.9.22,1.78.34,2.65,1.12-.13,2.25-.26,3.37-.38-.25-1.94-.49-3.87-.74-5.81l-3.34.19Z"/>
        <path d="M46.39,30.34c.07.8.15,1.61.25,2.43.13,1.1.27,2.18.42,3.23.92-.12,1.84-.25,2.76-.37-.05-1.86-.11-3.72-.16-5.58-1.09.1-2.17.19-3.26.29Z"/>
        <g>
          <g>
            <path class="cls-3" d="M32.21,36.25c.03.73.06,1.45.09,2.18.37-.06.73-.12,1.1-.19l-.17-2.09c-.34.03-.68.07-1.01.1Z"/>
            <path d="M32.27,38.46v-.03c-.03-.73-.06-1.45-.09-2.18v-.02s.02,0,.02,0l1.04-.1v.03s.18,2.12.18,2.12h-.02c-.37.07-.73.13-1.1.19h-.03ZM32.23,36.28c.03.71.06,1.42.09,2.13.35-.06.7-.12,1.05-.18l-.17-2.05-.96.1Z"/>
          </g>
          <g>
            <circle class="cls-3" cx="32.97" cy="37.89" r=".08"/>
            <path d="M32.97,37.99c-.06,0-.1-.05-.1-.1s.05-.1.1-.1.1.05.1.1-.05.1-.1.1ZM32.97,37.83s-.05.02-.05.05.02.05.05.05.05-.02.05-.05-.02-.05-.05-.05Z"/>
          </g>
        </g>
        <g>
          <path class="cls-3" d="M36.4,35.93c.03.73.06,1.45.09,2.18.37-.06.73-.12,1.1-.19l-.17-2.09c-.34.03-.68.07-1.01.1Z"/>
          <path d="M36.46,38.14v-.03s-.09-2.2-.09-2.2h.02c.34-.04.68-.07,1.01-.1h.03s0,.02,0,.02l.17,2.12h-.02s-1.13.19-1.13.19ZM36.43,35.95l.09,2.13,1.05-.18-.17-2.05c-.32.03-.64.06-.96.1Z"/>
        </g>
        <g>
          <circle class="cls-3" cx="37.16" cy="37.56" r=".08"/>
          <path d="M37.16,37.66c-.06,0-.1-.05-.1-.1s.05-.1.1-.1.1.05.1.1-.05.1-.1.1ZM37.16,37.51s-.05.02-.05.05.02.05.05.05.05-.02.05-.05-.02-.05-.05-.05Z"/>
        </g>
        <g>
          <g>
            <path class="cls-3" d="M40.59,35.5c.03.73.06,1.45.09,2.18.37-.06.73-.12,1.1-.19l-.17-2.09c-.34.03-.68.07-1.01.1Z"/>
            <path d="M40.65,37.7v-.03s-.09-2.2-.09-2.2h.02c.34-.04.68-.07,1.01-.1h.03s0,.02,0,.02l.17,2.12h-.02s-1.13.19-1.13.19ZM40.62,35.52l.09,2.13,1.05-.18-.17-2.05c-.32.03-.64.06-.96.1Z"/>
          </g>
          <g>
            <circle class="cls-3" cx="41.35" cy="37.13" r=".08"/>
            <path d="M41.35,37.23c-.06,0-.1-.05-.1-.1s.05-.1.1-.1.1.05.1.1-.05.1-.1.1ZM41.35,37.08s-.05.02-.05.05.02.05.05.05.05-.02.05-.05-.02-.05-.05-.05Z"/>
          </g>
        </g>
        <g>
          <g>
            <path class="cls-3" d="M44.73,35.11c.03.73.06,1.45.09,2.18.37-.06.73-.12,1.1-.19l-.17-2.09c-.34.03-.68.07-1.01.1Z"/>
            <path d="M44.8,37.32v-.03s-.09-2.2-.09-2.2h.02s1.04-.11,1.04-.11v.03s.18,2.12.18,2.12h-.02s-1.13.19-1.13.19ZM44.76,35.13l.09,2.13,1.05-.18-.17-2.05-.96.1Z"/>
          </g>
          <g>
            <circle class="cls-3" cx="45.5" cy="36.75" r=".08"/>
            <path d="M45.5,36.85c-.06,0-.1-.05-.1-.1s.05-.1.1-.1.1.05.1.1-.05.1-.1.1ZM45.5,36.69s-.05.02-.05.05.02.05.05.05.05-.02.05-.05-.02-.05-.05-.05Z"/>
          </g>
        </g>
        <g>
          <g>
            <path class="cls-3" d="M48.34,34.61c.03.73.06,1.45.09,2.18.37-.06.73-.12,1.1-.19l-.17-2.09c-.34.03-.68.07-1.01.1Z"/>
            <path d="M48.4,36.82v-.03s-.09-2.2-.09-2.2h.02c.34-.04.68-.07,1.01-.1h.03s0,.02,0,.02l.17,2.12h-.02s-1.13.19-1.13.19ZM48.36,34.63l.09,2.13,1.05-.18-.17-2.05c-.32.03-.64.06-.96.1Z"/>
          </g>
          <g>
            <circle class="cls-3" cx="49.1" cy="36.24" r=".08"/>
            <path d="M49.1,36.34c-.06,0-.1-.05-.1-.1s.05-.1.1-.1.1.05.1.1-.05.1-.1.1ZM49.1,36.19s-.05.02-.05.05.02.05.05.05.05-.02.05-.05-.02-.05-.05-.05Z"/>
          </g>
        </g>
        <g>
          <rect class="cls-3" x="69.04" y="32.48" width=".75" height="11.25" transform="translate(21.88 101.44) rotate(-81.87)"/>
          <circle class="cls-3" cx="74.94" cy="38.9" r=".6"/>
          <circle class="cls-3" cx="63.91" cy="37.32" r=".6"/>
        </g>
        <path d="M29.91,43.63c.03,3.73,0,6.17,0,6.17l1.92-.34v-6.03c-.64.07-1.28.14-1.92.2Z"/>
        <path d="M32.06,43.43v6.01c.64-.13,1.28-.27,1.92-.4v-5.81c-.64.07-1.28.14-1.92.2Z"/>
        <path d="M34.2,43.23v5.83c.64-.1,1.28-.2,1.92-.3v-5.71c-.64.06-1.28.12-1.92.19Z"/>
        <g>
          <path class="cls-3" d="M36.8,43.04v5.49c2.8-.39,5.61-.78,8.41-1.17v-5.32c-2.8.33-5.61.66-8.41,1Z"/>
          <path d="M36.75,48.59v-5.59h.04c2.8-.34,5.61-.67,8.41-1h.06s0,5.41,0,5.41h-.04c-2.5.35-5,.7-7.5,1.04l-.97.13ZM36.85,43.09v5.39l.86-.12c2.49-.34,4.97-.69,7.46-1.03v-5.22c-2.77.33-5.54.66-8.31.98Z"/>
        </g>
        <path d="M37.48,43.7c.02.49.03.98.05,1.46,1.07-.14,2.14-.29,3.21-.43-.03-.47-.06-.94-.09-1.4l-3.16.37Z"/>
        <g>
          <circle cx="35.66" cy="48.19" r=".08"/>
          <path class="cls-3" d="M35.66,48.29c-.06,0-.1-.05-.1-.1s.05-.1.1-.1.1.05.1.1-.05.1-.1.1ZM35.66,48.14s-.05.02-.05.05.02.05.05.05.05-.02.05-.05-.02-.05-.05-.05Z"/>
        </g>
        <g>
          <circle cx="33.47" cy="48.53" r=".08"/>
          <path class="cls-3" d="M33.47,48.64c-.06,0-.1-.05-.1-.1s.05-.1.1-.1.1.05.1.1-.05.1-.1.1ZM33.47,48.48s-.05.02-.05.05.02.05.05.05.05-.02.05-.05-.02-.05-.05-.05Z"/>
        </g>
        <g>
          <circle cx="31.26" cy="48.9" r=".08"/>
          <path class="cls-3" d="M31.26,49c-.06,0-.1-.05-.1-.1s.05-.1.1-.1.1.05.1.1-.05.1-.1.1ZM31.26,48.85s-.05.02-.05.05.02.05.05.05.05-.02.05-.05-.02-.05-.05-.05Z"/>
        </g>
        <g>
          <circle class="cls-3" cx="37.9" cy="45.44" r=".08"/>
          <path d="M37.9,45.54c-.06,0-.1-.05-.1-.1s.05-.1.1-.1.1.05.1.1-.05.1-.1.1ZM37.9,45.39s-.05.02-.05.05.02.05.05.05.05-.02.05-.05-.02-.05-.05-.05Z"/>
        </g>
        <g>
          <circle class="cls-3" cx="38.74" cy="45.36" r=".08"/>
          <path d="M38.74,45.46c-.06,0-.1-.05-.1-.1s.05-.1.1-.1.1.05.1.1-.05.1-.1.1ZM38.74,45.31s-.05.02-.05.05.02.05.05.05.05-.02.05-.05-.02-.05-.05-.05Z"/>
        </g>
        <g>
          <circle class="cls-3" cx="39.52" cy="45.28" r=".08"/>
          <path d="M39.52,45.39c-.06,0-.1-.05-.1-.1s.05-.1.1-.1.1.05.1.1-.05.1-.1.1ZM39.52,45.23s-.05.02-.05.05.02.05.05.05.05-.02.05-.05-.02-.05-.05-.05Z"/>
        </g>
        <g>
          <circle class="cls-3" cx="40.32" cy="45.21" r=".08"/>
          <path d="M40.32,45.31c-.06,0-.1-.05-.1-.1s.05-.1.1-.1.1.05.1.1-.05.1-.1.1ZM40.32,45.16s-.05.02-.05.05.02.05.05.05.05-.02.05-.05-.02-.05-.05-.05Z"/>
        </g>
        <g>
          <path class="cls-3" d="M46.01,42v5.1c1.27-.16,2.53-.32,3.8-.48v-5.15c-1.27.18-2.53.36-3.8.54Z"/>
          <path d="M45.96,47.15v-5.2h.04c1.27-.18,2.53-.36,3.8-.54h.06s0,5.24,0,5.24l-.43.05c-1.14.14-2.28.29-3.42.43h-.06ZM46.06,42.05v5c1.12-.14,2.24-.28,3.36-.43l.34-.04v-5.05c-1.23.17-2.47.35-3.7.52Z"/>
        </g>
        <polygon points="47.61 44.28 47.61 46.27 49.34 46.05 49.34 44.02 47.61 44.28"/>
        <g>
          <circle class="cls-3" cx="48.93" cy="43.71" r=".08"/>
          <path d="M48.93,43.81c-.06,0-.1-.05-.1-.1s.05-.1.1-.1.1.05.1.1-.05.1-.1.1ZM48.93,43.66s-.05.02-.05.05.02.05.05.05.05-.02.05-.05-.02-.05-.05-.05Z"/>
        </g>
        <g>
          <circle class="cls-3" cx="48.34" cy="43.79" r=".08"/>
          <path d="M48.34,43.89c-.06,0-.1-.05-.1-.1s.05-.1.1-.1.1.05.1.1-.05.1-.1.1ZM48.34,43.74s-.05.02-.05.05.02.05.05.05.05-.02.05-.05-.02-.05-.05-.05Z"/>
        </g>
        <path d="M30.03,54.09v-3.07h.04c6.58-.94,13.15-1.87,19.73-2.8h.06s0,3.52,0,3.52h-.04s-19.79,2.35-19.79,2.35ZM30.13,51.11v2.87l19.63-2.33v-3.32c-6.54.93-13.09,1.85-19.63,2.78Z"/>
        <path class="cls-3" d="M20.1,20.34c.78.57,1.57,1.14,2.35,1.7,11.07-.6,22.15-1.21,33.22-1.81-1.96-.52-3.91-1.04-5.87-1.56-9.9.56-19.8,1.11-29.71,1.67Z"/>
        <g>
          <path class="cls-3" d="M19.6,22.35c-.28,17.27-.56,34.55-.85,51.82.58,1.17,1.17,2.34,1.75,3.51.12-18.12.24-36.23.37-54.35-.42-.33-.85-.66-1.27-.99Z"/>
          <path class="cls-3" d="M20.99,79.78l-2.74-5.5.86-52.94,2.26,1.75-.38,56.69ZM19.25,74.06l.76,1.53.35-52.01-.29-.22-.83,50.7Z"/>
        </g>
      </g>
    </g>
  </g>
</svg>