<?xml version="1.0" encoding="UTF-8"?>
<svg id="Capa_2" data-name="Capa 2" xmlns="http://www.w3.org/2000/svg" viewBox="0 0 100 100">
  <defs>
    <style>
      .cls-1, .cls-2, .cls-3 {
        fill: #fff;
      }

      .cls-1, .cls-4 {
        stroke: #000;
        stroke-miterlimit: 10;
        stroke-width: .1px;
      }

      .cls-5 {
        fill: #031022;
      }

      .cls-2 {
        opacity: .2;
      }

      .cls-6 {
        fill: #a2332a;
      }
    </style>
  </defs>
  <g id="Icono_2:_Luminarias" data-name="Icono 2: Luminarias">
    <g>
      <circle id="_Elipse_Rojo2" data-name="&amp;lt;Elipse&amp;gt; Rojo2" class="cls-6" cx="50" cy="50" r="50"/>
      <circle id="_Elipse_Azul2" data-name="&amp;lt;Elipse&amp;gt; Azul2" class="cls-5" cx="50" cy="50" r="46.88"/>
      <g>
        <path class="cls-3" d="M20.4,20.49c-.08,5.78,14.8,11.69,27.52,12.06,14.33.42,30.67-6.04,30.59-12.06-.08-5.98-16.43-11.69-30.25-11.4-12.55.27-27.78,5.58-27.87,11.4Z"/>
        <path class="cls-4" d="M22.74,20.52c-.08,5.32,13.61,10.74,25.3,11.08,13.18.39,28.2-5.56,28.12-11.08-.07-5.5-15.1-10.75-27.81-10.48-11.54.24-25.54,5.13-25.62,10.48Z"/>
        <path class="cls-1" d="M70,21.39c0,3.92-10.42,7.74-19.18,7.95-9.69.23-20.92-3.87-20.92-7.93,0-4.02,11.01-8.05,20.43-7.96,9.05.08,19.67,3.99,19.67,7.95Z"/>
      </g>
      <path class="cls-2" d="M30.21,20.75c1.28.9,3.08,2.01,5.35,3.02.98.43,5.06,2.19,10.81,2.66,1.51.12,6.38.42,12.46-1.13,4.4-1.12,8.01-2.86,10.78-4.55.12.57.24,1.13.37,1.7,0,0,.19.88.37,1.7.27,1.27,3.86,22.21,8.7,50.89-2.74,2.29-14.15,11.3-30.99,10.74-14.94-.5-24.93-8.23-27.93-10.74"/>
    </g>
  </g>
</svg>