<?xml version="1.0" encoding="UTF-8"?>
<svg id="Capa_2" data-name="Capa 2" xmlns="http://www.w3.org/2000/svg" viewBox="0 0 100 100">
  <defs>
    <style>
      .cls-1 {
        fill: #031022;
      }

      .cls-2, .cls-3 {
        fill: #fff;
      }

      .cls-4, .cls-3 {
        stroke-width: 1.5px;
      }

      .cls-4, .cls-3, .cls-5 {
        stroke-miterlimit: 10;
      }

      .cls-4, .cls-5 {
        fill: none;
        stroke: #fff;
      }

      .cls-3 {
        stroke: #000;
      }

      .cls-6 {
        fill: #a2332a;
      }

      .cls-5 {
        stroke-width: 2px;
      }
    </style>
  </defs>
  <g id="Icono_5:_Contactos" data-name="Icono 5: Contactos">
    <g>
      <circle id="_Elipse_Rojo5" data-name="&amp;lt;Elipse&amp;gt; Rojo5" class="cls-6" cx="50" cy="50" r="50"/>
      <circle id="_Elipse_Azul5" data-name="&amp;lt;Elipse&amp;gt; Azul5" class="cls-1" cx="50" cy="50" r="46.88"/>
    </g>
    <g>
      <ellipse cx="33.81" cy="33.85" rx="13.81" ry="13.85"/>
      <path class="cls-2" d="M33.81,48.69c-8.17,0-14.81-6.66-14.81-14.85s6.65-14.85,14.81-14.85,14.81,6.66,14.81,14.85-6.65,14.85-14.81,14.85ZM33.81,21c-7.06,0-12.81,5.76-12.81,12.85s5.75,12.85,12.81,12.85,12.81-5.76,12.81-12.85-5.75-12.85-12.81-12.85Z"/>
    </g>
    <ellipse class="cls-5" cx="66.19" cy="33.85" rx="13.81" ry="13.85"/>
    <ellipse class="cls-5" cx="33.81" cy="66.15" rx="13.81" ry="13.85"/>
    <g>
      <path class="cls-2" d="M33.64,39.21h-.05c-2.68-.17-4.05-2.58-4.21-4.91-.17-2.33.88-5.1,3.59-5.67l.24-.05c1.66-.29,3.07.18,3.98,1.34,1.21,1.53,1.4,4.09.47,6.22-.79,1.81-2.23,2.92-3.97,3.06h-.05ZM33.27,30.11c-1.83.38-2.52,2.39-2.4,4.09.12,1.65,1.02,3.37,2.76,3.51,1.56-.15,2.33-1.41,2.66-2.16.71-1.62.59-3.59-.27-4.69-.57-.73-1.42-1-2.52-.8l-.22.04Z"/>
      <path class="cls-2" d="M33.7,42.34c-2.8,0-5.31-1.36-6.82-3.81-1.99-3.21-1.64-7.23.88-10.24,2.91-3.56,7.19-3.52,10.15-1.9,2.83,1.55,5.08,5,3.7,9.22-.71,2.5-1.76,3.81-2.98,3.66-.86-.1-1.91-.96-2.05-4.45l1.5-.06c.09,2.28.61,2.96.75,3.02.11-.03.78-.56,1.36-2.61,1.2-3.66-.86-6.3-2.98-7.46-2.41-1.32-5.9-1.35-8.27,1.54-2.1,2.51-2.4,5.84-.76,8.49,1.21,1.95,3.77,3.73,7.34,2.88l.35,1.46c-.73.17-1.44.26-2.14.26Z"/>
    </g>
    <g>
      <path d="M63.84,24.57c1.86.56,3.59,2.5,3.32,4.03-.24,1.39-1.89,1.51-2.11,2.99-.21,1.41,1,3.15,2.24,3.29,1.29.15,1.67-1.54,3.4-1.88,1.75-.34,3.96.97,4.75,2.81,1.21,2.82-1.17,6.3-3.88,7.1-.2.06-2.19.62-3.75-.42-.46-.31-9.47-9.41-10-9.98-.84-.9-1.16-2.23-1.06-3.27.28-2.89,4.04-5.59,7.09-4.68Z"/>
      <path class="cls-2" d="M70.07,43.88c-.81,0-1.79-.16-2.67-.75-.63-.42-10.06-10.01-10.14-10.1-1.09-1.17-1.36-2.76-1.26-3.85.16-1.62,1.23-3.24,2.86-4.34,1.66-1.12,3.55-1.48,5.19-.99h0c2.1.63,4.2,2.85,3.85,4.88-.17.95-.79,1.47-1.29,1.89-.47.39-.75.64-.81,1.08-.08.52.13,1.17.54,1.71.32.41.71.69,1.04.73.28.04.48-.13.95-.58.51-.48,1.15-1.09,2.21-1.29,2.1-.41,4.65,1.08,5.59,3.25.57,1.33.5,2.9-.2,4.39-.84,1.79-2.43,3.21-4.16,3.72-.21.06-.87.23-1.71.23ZM62.58,25.14c-.94,0-1.96.33-2.88.94-1.25.84-2.1,2.08-2.21,3.24-.08.79.16,1.92.87,2.68.77.83,9.3,9.42,9.89,9.88,1.26.84,3.02.33,3.1.31,1.31-.39,2.58-1.53,3.23-2.92.52-1.1.58-2.23.18-3.16-.65-1.51-2.51-2.64-3.92-2.37-.64.12-1.04.5-1.47.91-.52.49-1.17,1.09-2.16.97-.74-.09-1.49-.56-2.06-1.31-.66-.86-.97-1.93-.84-2.84.16-1.04.81-1.58,1.34-2.02.45-.37.7-.6.77-.99.19-1.08-1.25-2.72-2.8-3.18h0c-.33-.1-.68-.15-1.04-.15Z"/>
    </g>
    <path class="cls-4" d="M63.12,24.29c-.54,1.06-.46,2.32.21,3.26.78,1.08,2.21,1.54,3.54,1.12"/>
    <path class="cls-4" d="M71.41,32.82c-.54,1.06-.46,2.32.21,3.26.78,1.08,2.21,1.54,3.54,1.12"/>
    <g>
      <rect x="25.62" y="59.38" width="16.65" height="12.61" rx=".88" ry=".88"/>
      <path class="cls-2" d="M41.4,72.74h-14.89c-.9,0-1.63-.73-1.63-1.63v-10.85c0-.9.73-1.63,1.63-1.63h14.89c.9,0,1.63.73,1.63,1.63v10.85c0,.9-.73,1.63-1.63,1.63ZM26.5,60.12c-.07,0-.13.06-.13.13v10.85c0,.07.06.13.13.13h14.89c.07,0,.13-.06.13-.13v-10.85c0-.07-.06-.13-.13-.13h-14.89Z"/>
    </g>
    <g>
      <path d="M28.71,61.53c2.44,2.01,3.13,3.16,4.55,4.59.28.28.74.28,1.02,0,1.46-1.48,2.14-2.74,4.55-4.59,1.57-1.2,3.06-1.36,2.99-1.67-.07-.33-1.73-.24-3.26-.1h-9.19c-1.49-.21-3.09-.36-3.19,0-.09.32,1.12.62,2.53,1.78Z"/>
      <path class="cls-2" d="M33.77,67.08c-.39,0-.76-.15-1.04-.43-.47-.48-.87-.92-1.27-1.38-.8-.9-1.62-1.84-3.22-3.16h0c-.65-.54-1.27-.88-1.72-1.13-.59-.33-1.27-.7-1.05-1.44.24-.81,1.13-.94,3.97-.54h9.13c2.98-.28,3.81-.14,3.99.69.17.76-.55,1.04-1.13,1.28-.53.21-1.34.54-2.14,1.16-1.56,1.19-2.33,2.1-3.15,3.06-.4.47-.81.95-1.32,1.46-.28.28-.65.43-1.04.43ZM28.44,60.39c.24.16.49.35.75.56h0c1.69,1.39,2.56,2.38,3.4,3.32.38.44.76.86,1.21,1.31.42-.47.79-.91,1.19-1.38.84-.98,1.7-1.99,3.38-3.28.23-.18.46-.33.68-.47-.13.01-.27.02-.42.04h-9.31s-.05,0-.05,0c-.31-.04-.59-.08-.83-.11Z"/>
    </g>
    <g>
      <path class="cls-2" d="M59.38,71.98c.54-1.62.32-2.61,0-3.23-.84-1.63-2.74-1.35-3.49-3.07-.05-.12-.12-1.11-.26-3.07-.11-1.66-.12-2.01-.3-2.65-.19-.66-.47-1.19-1.02-2.24-.92-1.76-1.31-2.12-1.12-2.6.27-.67,1.41-.82,1.73-.87.71-.09,1.27.08,1.65.2.35.11,1.19.4,1.88,1.16.44.49.6.95.94,1.88.18.5.33,1.13.63,2.39.03.15.16.67.3,1.36.19.89.06,1.29.31,1.88.18.43.44.74.63.94h1.88v-23.66c0-1.57,1.26-2.69,2.45-2.59.89.08,1.71.83,1.97,1.88.16,3.81,0,6.75-.2,8.78-.05.54-.33,3.42-.16,7.16.08,1.6.17,2,.2,1.99.08,0,.27-2.64.42-5.74.07-1.4.11-2.59.94-3.16.57-.4,1.24-.32,1.29-.31.98.13,1.46,1.02,1.52,1.12.03,6.92.06,8.41.08,8.41.03,0,.14-1.54.18-3.62.06-3.06-.08-4.44.87-5.25.11-.09.6-.51,1.22-.46.75.06,1.21.75,1.4,1.02.61.91.51,1.91.46,2.25-.08,5.21-.08,6.34-.06,6.34.02,0,.19-1.48.24-3.53.04-1.91-.06-2.84.61-3.75.18-.25.64-.88,1.33-.9.73-.02,1.47.66,1.83,1.73-.05,4.64-.1,9.28-.15,13.92-.63,1.45-1.27,2.89-1.9,4.34-.02.66-.05,1.31-.07,1.97h-18.22Z"/>
      <path d="M78.32,72.74h-19.99l.33-.99c.37-1.11.38-2,.05-2.65-.3-.58-.79-.83-1.4-1.15-.72-.37-1.62-.84-2.11-1.96-.1-.23-.12-.44-.32-3.32l-.03-.48c-.08-1.23-.1-1.52-.25-2.02-.17-.59-.43-1.09-.96-2.1-.26-.5-.48-.88-.65-1.18-.48-.85-.77-1.37-.5-2.04.44-1.08,1.86-1.27,2.33-1.33.89-.12,1.6.11,1.98.23.38.12,1.37.45,2.2,1.38.53.59.74,1.17,1.08,2.12.2.55.36,1.24.66,2.48.05.23.17.73.31,1.37.09.44.12.78.14,1.05.02.3.04.48.13.69.07.17.16.33.28.48h.79v-22.91c0-.97.39-1.9,1.09-2.54.62-.57,1.41-.86,2.18-.79,1.22.1,2.3,1.11,2.63,2.44l.02.15c.12,3.01.06,5.9-.18,8.6.06-.05.13-.11.2-.16.81-.57,1.73-.46,1.83-.44.79.1,1.41.58,1.8,1.09.08-.09.16-.17.26-.25.54-.46,1.16-.68,1.77-.64,1.11.09,1.75,1.04,1.96,1.35.18.27.32.55.41.82.33-.34.84-.72,1.52-.74.02,0,.04,0,.06,0,1.05,0,2.06.89,2.51,2.24l.04.12-.16,14.2-1.91,4.34-.09,2.55ZM60.35,71.24h16.53l.05-1.39,1.9-4.33.15-13.63c-.28-.73-.74-1.08-1.06-1.1-.32,0-.64.45-.74.59-.41.56-.44,1.09-.46,2.54v.78c-.11,4.26-.3,4.26-1,4.26-.4-.02-.6-.03-.68-.91h-.05s.02-.11.03-.22c-.07-.94-.04-2.7.01-5.98v-.1c.06-.37.1-1.09-.33-1.72-.13-.2-.45-.66-.84-.69-.2-.03-.44.08-.67.28-.53.45-.56,1.33-.59,3.45,0,.38,0,.79-.02,1.25-.09,4.19-.12,4.35-.93,4.35-.76,0-.77-.31-.79-2.35-.01-1.21-.03-3.26-.04-6.6-.14-.2-.43-.53-.87-.59,0,0-.44-.05-.77.18-.51.36-.56,1.36-.62,2.52-.31,6.48-.33,6.48-1.13,6.52-.87.05-.89-.72-.99-2.71-.11-2.42-.06-4.99.16-7.25.26-2.71.32-5.6.2-8.62-.19-.68-.72-1.19-1.29-1.24-.34-.02-.72.12-1.03.4-.39.36-.61.88-.61,1.43v24.42h-2.94l-.22-.22c-.34-.35-.61-.74-.79-1.17-.18-.44-.21-.81-.24-1.16-.02-.23-.04-.5-.11-.85-.13-.63-.25-1.11-.29-1.3-.29-1.23-.45-1.89-.62-2.35-.32-.89-.45-1.25-.79-1.63-.56-.63-1.25-.86-1.55-.95-.32-.1-.76-.24-1.32-.17-1.02.13-1.13.4-1.14.4.02.05.22.4.42.74.18.32.4.71.67,1.23.56,1.06.86,1.65,1.08,2.38.19.65.21,1.04.3,2.33l.03.48c.1,1.49.18,2.59.22,2.88.29.6.78.85,1.4,1.18.72.37,1.53.79,2.04,1.79.41.79.51,1.74.31,2.83Z"/>
    </g>
    <rect class="cls-3" x="56.56" y="71.98" width="23.41" height="7.88" rx="1.21" ry="1.21"/>
  </g>
</svg>